<svg xmlns="http://www.w3.org/2000/svg" width="300" height="300" viewBox="0 0 300 300"><path fill="#FFF" d="M295.263 86.02v198.23H4.738V86.02c.324.41.66.807.97 1.228l38.71 52.847c34.893 47.632 69.788 95.264 104.684 142.894.27.37.56.725.913 1.18.472-.63.838-1.112 1.197-1.6 42.687-58.274 85.37-116.55 128.06-174.818 5.316-7.255 10.66-14.488 15.99-21.732z"/><path d="M295.263 86.02c-5.33 7.244-10.675 14.478-15.99 21.733-42.69 58.27-85.374 116.543-128.06 174.817-.36.488-.726.97-1.198 1.602-.353-.458-.643-.812-.913-1.183-34.896-47.63-69.79-95.264-104.684-142.896-12.905-17.616-25.807-35.232-38.71-52.847-.31-.42-.646-.818-.97-1.227v-.26c.282-.26.594-.49.84-.78 13.165-15.35 26.318-30.712 39.5-46.05.516-.6 1.217-1.14 1.94-1.45 16.076-6.885 32.168-13.733 48.254-20.6.78-.333 1.525-.752 2.288-1.13h104.883c.48.263.938.57 1.44.782 16.367 6.98 32.74 13.95 49.102 20.94.62.266 1.258.654 1.69 1.155 13.064 15.206 26.103 30.435 39.155 45.654.444.523.953.988 1.434 1.48v.262zm-145.51 181.74l70.167-128.738H79.598c23.402 42.945 46.714 85.72 70.156 128.74zM79.62 128.948h140.267c-.138-.358-.22-.6-.322-.833-7.794-17.447-15.597-34.89-23.358-52.35-.394-.883-.943-.96-1.732-.96-29.798.013-59.595.015-89.393-.01-.956 0-1.455.257-1.862 1.174-7.676 17.26-15.39 34.5-23.096 51.75-.173.38-.32.773-.504 1.23zM240.25 42.86c-.41-.21-.594-.322-.79-.405-12.918-5.51-25.836-11.02-38.767-16.503-.618-.26-1.35-.36-2.028-.36-32.593-.018-65.187-.02-97.778.004a6.3 6.3 0 0 0-2.398.483c-11.008 4.656-22 9.352-32.99 14.04-2.036.87-4.07 1.743-6.23 2.67.3.192.43.295.576.37C74.294 50.356 88.74 57.555 103.2 64.732c.443.22 1 .292 1.507.292 30.016.014 60.03.015 90.045-.007.62 0 1.296-.178 1.856-.454 7.082-3.493 14.15-7.018 21.218-10.536l22.424-11.17zm42.432 43.58l-32.21-37.71-45.78 22.423c8.337 18.618 16.613 37.1 24.945 55.702 17.755-13.528 35.33-26.917 53.045-40.416zM94.818 71.15c-15.325-7.504-30.513-14.944-45.78-22.422L16.82 86.438c17.72 13.5 35.32 26.912 53.047 40.416 8.338-18.612 16.604-37.068 24.95-55.703zm99.23 135.774l.222.113c22.496-30.653 44.99-61.31 67.486-91.962-.368-.078-.522.003-.66.107-9.532 7.236-19.068 14.468-28.58 21.732-.53.404-.95 1.015-1.277 1.61-12.2 22.38-24.383 44.77-36.566 67.16-.222.406-.42.826-.626 1.24zm-89.093-.287c.085-.06.17-.117.256-.177-.203-.414-.394-.837-.614-1.244-12.077-22.193-24.15-44.386-36.252-66.564a6.706 6.706 0 0 0-1.753-2.043c-7.94-6.08-15.912-12.118-23.88-18.165-1.58-1.2-3.165-2.395-4.747-3.593-.073.07-.146.14-.22.208l67.213 91.577z"/><path fill="#FFF" d="M97.56 15.75c-.763.378-1.508.798-2.29 1.13-16.084 6.867-32.177 13.714-48.252 20.6-.725.31-1.426.85-1.94 1.45-13.183 15.338-26.335 30.7-39.5 46.05-.247.29-.56.52-.84.78V15.75h92.82zm197.703 70.01c-.48-.492-.99-.958-1.434-1.477-13.054-15.222-26.093-30.45-39.158-45.656-.432-.5-1.07-.89-1.688-1.154-16.363-6.992-32.736-13.96-49.104-20.94-.498-.213-.96-.52-1.438-.783h92.82v70.01zm-145.51 182C126.314 224.744 103 181.968 79.6 139.02H219.92c-23.378 42.894-46.7 85.688-70.166 128.74zM79.62 128.947c.185-.455.33-.85.502-1.23 7.705-17.248 15.42-34.49 23.096-51.75.407-.916.906-1.173 1.862-1.172 29.798.024 59.595.022 89.393.01.79 0 1.34.076 1.734.96 7.762 17.46 15.564 34.902 23.358 52.35.105.23.186.474.323.832H79.618z"/><path fill="#FFF" d="M240.25 42.86l-22.424 11.17c-7.068 3.52-14.136 7.043-21.218 10.536-.56.276-1.235.453-1.856.453-30.016.02-60.03.02-90.045.005-.506 0-1.064-.073-1.507-.292-14.46-7.177-28.906-14.376-43.353-21.575-.148-.074-.278-.177-.577-.37 2.162-.926 4.195-1.8 6.23-2.667 10.994-4.69 21.983-9.384 32.99-14.043a6.337 6.337 0 0 1 2.397-.484c32.592-.024 65.186-.022 97.778-.005.68 0 1.41.1 2.028.362 12.93 5.484 25.848 10.996 38.768 16.503.197.083.38.194.79.405zm42.432 43.58l-53.045 40.415c-8.332-18.6-16.608-37.084-24.946-55.702 15.286-7.488 30.51-14.943 45.78-22.424 10.75 12.582 21.443 25.1 32.213 37.71zM94.818 71.15l-24.95 55.704C52.14 113.35 34.54 99.94 16.818 86.44L49.04 48.73c15.267 7.476 30.455 14.916 45.78 22.42zm99.232 135.774c.206-.414.403-.834.624-1.24 12.184-22.39 24.365-44.78 36.564-67.16.324-.596.747-1.208 1.276-1.612 9.513-7.262 19.05-14.494 28.58-21.73.14-.104.293-.187.66-.107-22.494 30.654-44.99 61.31-67.485 91.962l-.22-.113zm-89.095-.287c-22.404-30.524-44.808-61.05-67.21-91.576l.218-.206c1.583 1.198 3.17 2.393 4.75 3.593 7.964 6.047 15.937 12.083 23.878 18.163a6.68 6.68 0 0 1 1.755 2.042c12.103 22.18 24.176 44.37 36.252 66.564.22.407.41.83.616 1.244-.086.06-.172.117-.257.177z"/></svg>